<svg xmlns="http://www.w3.org/2000/svg" width="22" height="24" viewBox="0 0 22 24">
    <path fill="#F7F7F7" fill-rule="evenodd" d="M20.88 16.008l-1.896-1.946v-3.607c0-3.596-2.127-6.687-5.317-7.937C13.347 1.078 12.08 0 10.571 0 9.06 0 7.794 1.078 7.474 2.518c-3.19 1.25-5.317 4.34-5.317 7.937v3.607L.262 16.01a.922.922 0 0 0-.262.644V19.4c0 .494.4.894.894.894h5.963C6.862 22.27 8.595 24 10.571 24c1.975 0 3.709-1.73 3.713-3.706h5.964c.493 0 .894-.4.894-.894v-2.747a.922.922 0 0 0-.262-.645zm-10.31 6.204c-1.056 0-1.92-.995-1.925-1.918h3.852c-.005.922-.87 1.918-1.926 1.918zm8.784-3.706H1.788v-1.502l2.157-2.215v-4.334c0-3.259 2.157-5.936 5.239-6.588v-.635c0-.77.616-1.444 1.387-1.444.77 0 1.387.674 1.387 1.444v.635c3.081.652 5.239 3.33 5.239 6.588v4.334l2.157 2.215v1.502z"/>
</svg>
